<?xml version="1.0" encoding="UTF-8"?>
<svg id="Layer_2" data-name="Layer 2" xmlns="http://www.w3.org/2000/svg" viewBox="0 0 545.29 130.44">
  <defs>
    <style>
      .cls-1 {
        fill: #fff;
      }
    </style>
  </defs>
  <g id="katman_1" data-name="katman 1">
    <path class="cls-1" d="m36.04.24H6.41C1.26.24.11,1.39,0,6.33v15.97c0,4.62,1.26,5.78,5.67,5.88l37.2.53c6.83.11,13.56,0,20.28.11,8.83.11,16.71,3.15,23.75,8.51,16.18,12.5,17.55,37.2,3.89,51.7-7.46,8.09-17.97,12.72-29,12.5-18.49.11-36.88,0-55.38-.11-5.25,0-6.41,1.26-6.41,6.52v15.97c.11,4.83,1.58,6.31,6.41,6.31,16.81,0,33.52.11,50.23,0,4.52,0,9.04-.32,13.45-.84,16.18-1.58,31.1-9.56,41.3-22.38,15.97-18.81,19.65-45.08,9.56-67.57C110.34,13.58,89.32,1.08,61.68.03c-8.41-.11-17.02.11-25.64.21Zm164.46-.11c36.99,0,67.04,29.11,67.04,65.15s-30.05,65.15-67.15,65.15-67.04-29.11-67.04-65.05S163.41.13,200.5.13Zm0,104.24c20.7,0,37.62-17.55,37.62-39.09s-16.81-39.09-37.73-39.09-37.73,17.55-37.73,39.09c.11,21.65,17.02,39.09,37.83,39.09Zm108.78-49.91c-1.26-1.58-.84-3.26-.84-4.83V5.29c-.32-2.94-1.37-3.99-3.99-4.62-.95-.21-2-.42-2.94-.42h-17.34c-4.62.11-6.09,1.58-6.09,6.09v118.01c0,4.52,1.26,5.78,5.67,5.88h16.5c7.15,0,8.2-.84,8.2-8.3v-26.27c0-2.94.63-5.57,2.84-7.67,3.05-3.15,6.09-6.31,9.35-9.25,2.42-2.31,4.2-2.1,6.41.53,2.1,2.52,3.99,5.15,5.99,7.67l29.74,38.99c2.1,2.63,4.73,4.31,8.2,4.31l25.43-.11c1.37,0,2.94.11,3.78-2.1-.63-1.05-1.37-2.63-2.42-3.89l-35.73-45.82-14.4-18.81c-2.42-3.15-2.31-4.83.42-7.78.42-.42.74-.84,1.16-1.26l25.85-25.64,19.76-19.65c1.05-1.16,2.94-2,2.1-4.31-.63-.11-1.26-.42-1.89-.53-8.41-.11-16.6-.32-25.01-.32-4.83,0-8.72,1.89-12.19,5.46-14.71,15.45-29.63,30.47-44.66,45.71-1.05,1.37-1.89,2.94-3.89,3.26Zm102.25-17.09v12.29c.21,8.51-.53,16.81.84,25.22,5.15,33.52,35.2,57.59,69.15,55.27,35.62-.95,63.89-30.37,63.68-65.99.21-18.92,0-37.73,0-56.64v-2.52c-.32-2.84-1.47-4.31-4.31-4.31-6.83-.11-13.45-.11-20.28,0-2.84.11-3.99,1.58-4.1,4.31v4.31c-.21,19.02-.32,38.04-.63,57.17-.11,8.2-2.94,16.18-7.88,22.7-12.08,16.18-34.99,19.55-51.28,7.46-10.4-7.78-16.29-20.07-15.97-33-.11-18.92.11-37.73.32-56.64,0-5.25-1.26-6.41-6.52-6.52h-16.81c-5.04.11-6.09,1.26-6.09,6.41v30.47h-.11Z"/>
  </g>
</svg>